<svg width="21" height="20" viewBox="0 0 21 20" fill="none" xmlns="http://www.w3.org/2000/svg">
<g clip-path="url(#clip0_5295_10536)">
<path d="M17.9595 7.34061C18.3943 7.67698 18.8276 8.01163 19.2617 8.34714C19.3251 8.39568 19.3876 8.44507 19.451 8.49361C19.6234 8.6256 19.9127 8.52938 20.0078 8.34033C20.12 8.11894 20.0444 7.89924 19.8615 7.75702C19.4267 7.42065 18.9934 7.08601 18.5594 6.75049C18.496 6.70195 18.4334 6.65256 18.37 6.60402C18.1977 6.47203 17.9083 6.56826 17.8132 6.7573C17.7018 6.9804 17.7774 7.20009 17.9595 7.34061Z" fill="#5ECE7B"/>
<path d="M1.49135 8.49452C2.14568 7.99041 2.79839 7.48544 3.45193 6.98303C3.64539 6.83401 3.84047 6.68498 4.03312 6.53341C4.20381 6.40142 4.30786 6.15872 4.17943 5.9501C4.0697 5.77297 3.80552 5.6563 3.62263 5.79682C2.93172 6.32903 2.23918 6.86295 1.54825 7.39517C1.39218 7.51609 1.23531 7.63531 1.08086 7.75708C0.910168 7.88907 0.806127 8.13177 0.934554 8.3404C1.04429 8.51837 1.30928 8.63504 1.49135 8.49452Z" fill="#5ECE7B"/>
<path d="M17.7588 6.97202V7.17507V17.6256C17.7588 17.9674 17.7604 18.3101 17.7588 18.6519C17.7588 18.6533 17.7588 18.6546 17.7588 18.656V18.6713C17.7595 18.6126 17.7593 18.6246 17.7588 18.6519C17.7587 18.6631 17.7584 18.677 17.7582 18.6896C17.7577 18.7166 17.7572 18.7378 17.7572 18.7156C17.7572 18.7709 17.7816 18.639 17.7588 18.6883C17.7586 18.6888 17.7584 18.6892 17.7582 18.6896C17.7531 18.6997 17.7497 18.7128 17.7473 18.7253C17.746 18.7317 17.745 18.738 17.7442 18.7437C17.7361 18.7948 17.7848 18.6798 17.7523 18.7181C17.7506 18.7203 17.7489 18.7227 17.7473 18.7253C17.742 18.7331 17.7368 18.7423 17.7325 18.751C17.7301 18.7559 17.728 18.7607 17.7263 18.765C17.706 18.8118 17.7816 18.7139 17.7409 18.7437C17.7383 18.7459 17.7355 18.7484 17.7325 18.751C17.7228 18.7598 17.7124 18.7703 17.7059 18.7798C17.7053 18.7805 17.7048 18.7813 17.7044 18.782C17.6843 18.8089 17.7732 18.7315 17.7059 18.7798C17.7049 18.7805 17.7038 18.7812 17.7027 18.782C17.6989 18.7836 17.6944 18.7864 17.6906 18.7888C17.6903 18.789 17.6908 18.7887 17.6906 18.7888C17.6597 18.8059 17.6597 18.8059 17.6906 18.7905C17.6987 18.7863 17.7068 18.7837 17.7149 18.7803C17.7073 18.783 17.6988 18.7861 17.6906 18.7888C17.6857 18.7904 17.6813 18.7915 17.6759 18.7931C17.6655 18.7958 17.6581 18.798 17.6532 18.7998C17.6122 18.8143 17.7396 18.7976 17.6475 18.7999H4.17871C3.90235 18.7999 3.62762 18.8016 3.35123 18.7999H3.32341H3.30653C3.23175 18.7999 3.32685 18.7956 3.33254 18.8041C3.33209 18.803 3.32852 18.8015 3.32341 18.7999C3.31285 18.7966 3.29571 18.7928 3.2859 18.7904C3.28316 18.7898 3.28099 18.7892 3.2797 18.7888C3.20248 18.7701 3.30571 18.7931 3.30246 18.799C3.30178 18.7998 3.29452 18.7957 3.2859 18.7904C3.27592 18.7844 3.26412 18.7768 3.25859 18.7733C3.25751 18.7726 3.25667 18.7721 3.25613 18.7718C3.18596 18.7367 3.29806 18.8262 3.25859 18.7733C3.25783 18.7723 3.25701 18.7712 3.25613 18.7701C3.25684 18.7719 3.24997 18.7649 3.24201 18.7561C3.2317 18.7448 3.21955 18.7307 3.21955 18.7292C3.22088 18.7275 3.22292 18.7273 3.22496 18.7288C3.22513 18.7291 3.2253 18.7294 3.22547 18.7297C3.23081 18.7342 3.23756 18.7466 3.24201 18.7561C3.24841 18.7699 3.25004 18.7778 3.23581 18.7479C3.23654 18.7499 3.23138 18.7406 3.22547 18.7297C3.2253 18.7294 3.22513 18.7291 3.22496 18.7288C3.21782 18.7156 3.2098 18.7003 3.2098 18.6994C3.2108 18.6988 3.21177 18.6987 3.21272 18.6991C3.21813 18.7009 3.2226 18.7162 3.22496 18.7288C3.22513 18.7291 3.2253 18.7294 3.22547 18.7297C3.22854 18.7467 3.22733 18.7581 3.21955 18.7232C3.21955 18.7253 3.21621 18.7127 3.21272 18.6991C3.21234 18.6976 3.21197 18.6961 3.21159 18.6946C3.20816 18.6811 3.20492 18.6679 3.20492 18.6679C3.20666 18.6677 3.20799 18.6694 3.20899 18.6724C3.21066 18.6775 3.2114 18.6861 3.21159 18.6946C3.21208 18.7163 3.20899 18.7372 3.20899 18.6951V18.6724V7.16214V6.94974C3.14233 7.07321 3.07487 7.19498 3.0074 7.31761C3.07461 7.26584 3.1418 7.21401 3.20899 7.16214C3.63582 6.83257 4.06221 6.50115 4.48921 6.17228C4.81678 5.92108 5.14111 5.66986 5.46868 5.41866C6.08481 4.9435 6.70257 4.46918 7.31789 3.99231C8.03481 3.4388 8.75498 2.88531 9.47201 2.33179C9.80665 2.0746 10.1512 1.82589 10.4825 1.56111C10.5439 1.51205 10.6049 1.46243 10.6653 1.41211C10.6718 1.40785 10.6775 1.4036 10.6831 1.39934H10.2727C10.3427 1.45333 10.4127 1.50724 10.4825 1.56111C10.7432 1.76214 11.0028 1.96255 11.2643 2.16403C11.3216 2.20817 11.379 2.25232 11.4363 2.29645C12.0844 2.79549 12.7318 3.29404 13.3793 3.79475C14.0296 4.29716 14.6799 4.79788 15.3301 5.30027C15.5837 5.49613 15.8382 5.69199 16.0926 5.88784C16.1042 5.89683 16.1158 5.90582 16.1275 5.91482C16.6706 6.3349 17.2138 6.75499 17.7588 7.17507C17.8098 7.21434 17.8607 7.25362 17.9117 7.29289C17.928 7.30566 17.9459 7.31843 17.9621 7.33376C18.1344 7.46575 18.4238 7.36953 18.5189 7.18048C18.6311 6.95909 18.5579 6.73939 18.3726 6.59717C17.8134 6.16713 17.255 5.73541 16.6965 5.30282C16.4324 5.09845 16.1698 4.89577 15.9064 4.69395C15.2928 4.22134 14.6791 3.74702 14.0629 3.27358C13.3411 2.71836 12.6201 2.1623 11.8992 1.60456C11.5009 1.29801 11.1091 0.972716 10.7003 0.680623C10.6938 0.676365 10.6881 0.672108 10.6824 0.66785C10.5767 0.586954 10.3776 0.586954 10.2719 0.66785C9.79071 1.03827 9.31113 1.40869 8.82912 1.77913C7.93499 2.46889 7.04086 3.15693 6.14833 3.84669C5.64436 4.23671 5.13877 4.62585 4.63483 5.01332C4.00488 5.49871 3.37654 5.98408 2.74903 6.46947C2.69864 6.50779 2.64905 6.54611 2.59866 6.58698C2.47267 6.68491 2.40195 6.79561 2.39545 6.96762C2.39382 7.01872 2.39545 7.06981 2.39545 7.1209V17.3564C2.39545 17.7924 2.38569 18.2318 2.39545 18.6678C2.40764 19.2111 2.81649 19.6385 3.33428 19.6487H17.4449C17.6823 19.6487 17.9099 19.647 18.1237 19.504C18.4082 19.3166 18.5707 18.9973 18.5723 18.6465V6.96164C18.5723 6.73855 18.3854 6.52565 18.1659 6.53587C17.9432 6.55716 17.7588 6.73359 17.7588 6.97202Z" fill="#5ECE7B"/>
<path d="M17.7588 7.17507C17.2138 6.75499 16.6706 6.3349 16.1275 5.91482L16.0926 5.88784C15.8382 5.69199 15.5837 5.49613 15.3301 5.30027C14.6799 4.79788 14.0296 4.29716 13.3793 3.79475C12.7318 3.29404 12.0844 2.79549 11.4363 2.29645L11.2643 2.16403C11.0028 1.96255 10.7432 1.76214 10.4825 1.56111C10.1512 1.82589 9.80665 2.0746 9.47201 2.33179C8.75498 2.88531 8.03481 3.4388 7.31789 3.99231C6.70257 4.46918 6.08481 4.9435 5.46868 5.41866C5.14111 5.66986 4.81678 5.92108 4.48921 6.17228C4.06221 6.50115 3.63582 6.83257 3.20899 7.16214V18.6724C3.21066 18.6775 3.2114 18.6861 3.21159 18.6946C3.21197 18.6961 3.21234 18.6976 3.21272 18.6991C3.21813 18.7009 3.2226 18.7162 3.22496 18.7288C3.22513 18.7291 3.2253 18.7294 3.22547 18.7297C3.23081 18.7342 3.23756 18.7466 3.24201 18.7561C3.24997 18.7649 3.25684 18.7719 3.25613 18.7701C3.25701 18.7712 3.25783 18.7723 3.25859 18.7733C3.26412 18.7768 3.27592 18.7844 3.2859 18.7904C3.29571 18.7928 3.31285 18.7966 3.32341 18.7999H3.35123C3.62762 18.8016 3.90235 18.7999 4.17871 18.7999H17.6475C17.6495 18.7998 17.6514 18.7998 17.6532 18.7998C17.6581 18.798 17.6655 18.7958 17.6759 18.7931C17.6813 18.7915 17.6857 18.7904 17.6906 18.7888C17.6944 18.7864 17.6989 18.7836 17.7027 18.782C17.7038 18.7812 17.7049 18.7805 17.7059 18.7798C17.7124 18.7703 17.7228 18.7598 17.7325 18.751C17.7368 18.7423 17.742 18.7331 17.7473 18.7253C17.7497 18.7128 17.7531 18.6997 17.7582 18.6896C17.7584 18.677 17.7587 18.6631 17.7588 18.6519C17.7604 18.3101 17.7588 17.9674 17.7588 17.6256V7.17507Z" fill="#5ECE7B"/>
<path d="M12.2462 11.4096V12.0838V13.7044V15.6644V17.3612C12.2462 17.5166 12.2425 17.6729 12.2413 17.8291C12.2405 17.9495 12.2411 18.0697 12.2462 18.1894V18.2029L12.6366 17.8291H12.2413H11.061H8.54922H8.36183H7.97144L8.36183 18.2029V17.8291V16.6219V13.5483V11.4867V11.4232V11.4142V11.405V11.3881L8.36184 11.3853C8.36197 11.3599 8.36397 11.364 8.36449 11.3757C8.36489 11.3843 8.36446 11.3972 8.36183 11.405C8.36044 11.4092 8.35843 11.412 8.35559 11.412C8.35559 11.412 8.35796 11.3997 8.36184 11.3853C8.36269 11.3822 8.36359 11.3789 8.36449 11.3757C8.36911 11.3591 8.37398 11.3428 8.37511 11.341C8.3345 11.4045 8.39228 11.2677 8.37511 11.341C8.37589 11.3391 8.38522 11.3238 8.39458 11.309C8.39629 11.3063 8.39843 11.3032 8.40009 11.3006C8.40753 11.289 8.41415 11.2797 8.41415 11.2797C8.41629 11.281 8.41642 11.2834 8.41526 11.2862C8.41248 11.293 8.40227 11.3028 8.39458 11.309C8.38448 11.3172 8.37912 11.319 8.40009 11.3006C8.40009 11.3006 8.40752 11.2935 8.41526 11.2862C8.41898 11.2827 8.42308 11.2789 8.42717 11.2751C8.43059 11.272 8.43401 11.2688 8.43722 11.2659C8.44657 11.2575 8.45475 11.252 8.45475 11.252C8.45592 11.2537 8.45555 11.2557 8.45414 11.2578C8.44988 11.264 8.43624 11.2714 8.42717 11.2751C8.41648 11.2795 8.41216 11.279 8.43722 11.2659C8.44007 11.2645 8.4433 11.2628 8.44694 11.261C8.44694 11.261 8.45068 11.2595 8.45414 11.2578C8.46223 11.2537 8.47509 11.2465 8.48538 11.2408C8.49094 11.2378 8.49575 11.2352 8.49866 11.2337C8.50052 11.2328 8.5016 11.2326 8.5016 11.2326L8.49866 11.2337C8.48824 11.2378 8.47781 11.2425 8.46739 11.2466C8.4733 11.2445 8.47927 11.2426 8.48538 11.2408C8.49115 11.2392 8.49706 11.2377 8.50316 11.2363C8.50587 11.2357 8.51583 11.2335 8.52622 11.2312C8.5397 11.2282 8.55391 11.2251 8.55391 11.2251C8.49425 11.2324 8.48404 11.2326 8.52622 11.2312L8.52892 11.2311H8.55625H8.62262H9.77663H11.3757H11.9027H12.0355H12.055H12.069C12.0717 11.2311 12.0743 11.2312 12.0765 11.2312C12.1225 11.2322 12.1007 11.2333 12.0798 11.232C12.0684 11.2313 12.0573 11.2299 12.0573 11.2274C12.0573 11.2274 12.0656 11.2286 12.0765 11.2312L12.0798 11.232C12.1007 11.2371 12.1291 11.2446 12.1315 11.246C12.0651 11.2049 12.2018 11.2625 12.1315 11.246C12.1338 11.2469 12.1561 11.2597 12.1737 11.27C12.1759 11.2713 12.1777 11.2722 12.1798 11.2734C12.1889 11.2788 12.1955 11.2834 12.1955 11.2834C12.1944 11.2852 12.1875 11.2801 12.1798 11.2734C12.1617 11.2577 12.1391 11.2338 12.1737 11.27C12.176 11.2722 12.1948 11.2894 12.2088 11.3036L12.2098 11.3054C12.2186 11.3144 12.2244 11.3223 12.2244 11.3223C12.2228 11.3233 12.2182 11.318 12.2131 11.3109C12.2119 11.3092 12.211 11.3073 12.2098 11.3054L12.2088 11.3036C12.1844 11.2632 12.1962 11.2846 12.2088 11.3036L12.2098 11.3054C12.211 11.3073 12.2119 11.3092 12.2131 11.3109C12.217 11.3172 12.223 11.3267 12.2288 11.3361C12.231 11.3396 12.2331 11.3431 12.2351 11.3464C12.241 11.3561 12.2458 11.3649 12.2463 11.3671C12.2443 11.3678 12.2424 11.3673 12.2406 11.3659C12.2348 11.3611 12.2306 11.3464 12.2288 11.3361C12.2266 11.3234 12.2281 11.3174 12.2346 11.3447L12.2351 11.3464C12.2361 11.3497 12.2382 11.3571 12.2406 11.3659C12.2424 11.3724 12.2444 11.3797 12.2463 11.3867C12.2504 11.402 12.2541 11.4157 12.2541 11.4157C12.2528 11.4019 12.2509 11.3875 12.248 11.373C12.2476 11.3709 12.2468 11.3693 12.2463 11.3671V11.3867V11.4002L12.2462 11.4096C12.2501 11.6054 12.422 11.7925 12.6367 11.7835C12.827 11.7752 13.0028 11.6431 13.0249 11.4591C13.0268 11.443 13.0276 11.4265 13.0271 11.4097C13.0154 10.8955 12.5914 10.4866 12.0526 10.4769C11.9628 10.4754 11.8707 10.4769 11.7809 10.4769H10.313H8.8412C8.74516 10.4769 8.64991 10.4754 8.55387 10.4769C8.03229 10.4858 7.62081 10.8641 7.57943 11.3589C7.56538 11.5249 7.57787 11.6953 7.57787 11.8612V13.0386V16.1855C7.57787 16.847 7.5685 17.5086 7.57787 18.1678V18.1977C7.57787 18.3995 7.75746 18.5714 7.96826 18.5714H9.54391H12.0557H12.6334C12.8443 18.5714 13.0238 18.3995 13.0238 18.1977V17.5234V15.9029V13.9429V12.2461C13.0238 11.9847 13.0309 11.7219 13.0249 11.4591C13.0246 11.4453 13.0242 11.4316 13.0238 11.4179V11.4044C13.0238 11.2086 12.8442 11.0217 12.6334 11.0307C12.438 11.044 12.2675 11.1824 12.248 11.373C12.2471 11.382 12.2465 11.391 12.2463 11.4002C12.2462 11.4033 12.2462 11.4064 12.2462 11.4096Z" fill="white"/>
<path d="M12.2462 12.0838V11.4096C12.2462 11.4064 12.2462 11.4033 12.2463 11.4002V11.3867C12.2444 11.3797 12.2424 11.3724 12.2406 11.3659C12.2348 11.3611 12.2306 11.3464 12.2288 11.3361C12.223 11.3267 12.217 11.3172 12.2131 11.3109C12.2119 11.3092 12.211 11.3073 12.2098 11.3054L12.2088 11.3036C12.1948 11.2894 12.176 11.2722 12.1737 11.27C12.1561 11.2597 12.1338 11.2469 12.1315 11.246C12.1291 11.2446 12.1007 11.2371 12.0798 11.232C12.0761 11.2318 12.0723 11.2315 12.069 11.2311C12.0623 11.2303 12.0573 11.2274 12.0573 11.2274C12.0573 11.2274 12.0656 11.2286 12.0765 11.2312C12.1225 11.2322 12.1007 11.2333 12.0798 11.232C12.1007 11.2371 12.1291 11.2446 12.1315 11.246C12.1338 11.2469 12.1561 11.2597 12.1737 11.27C12.1391 11.2338 12.1617 11.2577 12.1798 11.2734C12.1889 11.2788 12.1955 11.2834 12.1955 11.2834C12.1944 11.2852 12.1875 11.2801 12.1798 11.2734C12.1777 11.2722 12.1759 11.2713 12.1737 11.27C12.176 11.2722 12.1948 11.2894 12.2088 11.3036C12.1844 11.2632 12.1962 11.2846 12.2088 11.3036L12.2098 11.3054C12.2186 11.3144 12.2244 11.3223 12.2244 11.3223C12.2228 11.3233 12.2182 11.318 12.2131 11.3109C12.217 11.3172 12.223 11.3267 12.2288 11.3361C12.2266 11.3234 12.2281 11.3174 12.2346 11.3447L12.2351 11.3464C12.241 11.3561 12.2458 11.3649 12.2463 11.3671V11.3649C12.2469 11.3676 12.2475 11.3703 12.248 11.373C12.2675 11.1824 12.438 11.044 12.6334 11.0307C12.8442 11.0217 13.0238 11.2086 13.0238 11.4044V11.4179C13.0242 11.4316 13.0246 11.4453 13.0249 11.4591C13.0268 11.443 13.0276 11.4265 13.0271 11.4097C13.0154 10.8955 12.5914 10.4866 12.0526 10.4769C11.9628 10.4754 11.8707 10.4769 11.7809 10.4769H10.313H8.8412C8.74516 10.4769 8.64991 10.4754 8.55387 10.4769C8.03229 10.4858 7.62081 10.8641 7.57943 11.3589C7.56538 11.5249 7.57787 11.6953 7.57787 11.8612V13.0386V16.1855C7.57787 16.847 7.5685 17.5086 7.57787 18.1678V18.1977C7.57787 18.3995 7.75746 18.5714 7.96826 18.5714H9.54391H12.0557H12.6334C12.8443 18.5714 13.0238 18.3995 13.0238 18.1977V17.5234V15.9029V13.9429V12.2461C13.0238 11.9847 13.0309 11.7219 13.0249 11.4591C13.0028 11.6431 12.827 11.7752 12.6367 11.7835C12.422 11.7925 12.2501 11.6054 12.2462 11.4096L12.2463 11.4002C12.2462 11.4033 12.2462 11.4064 12.2462 11.4096V12.0838V13.7044V15.6644V17.3612C12.2462 17.5166 12.2425 17.6729 12.2413 17.8291H12.6366L12.2462 18.2029V18.1894C12.2411 18.0697 12.2405 17.9495 12.2413 17.8291H11.061H8.54922H8.36183V18.2029L7.97144 17.8291H8.36183V16.6219V13.5483V11.4867V11.4232V11.4142V11.405C8.36044 11.4092 8.35843 11.412 8.35559 11.412C8.35559 11.412 8.35796 11.3997 8.36184 11.3853C8.36197 11.3599 8.36397 11.364 8.36449 11.3757C8.36911 11.3591 8.37398 11.3428 8.37511 11.341C8.37589 11.3391 8.38522 11.3238 8.39458 11.309C8.38448 11.3172 8.37912 11.319 8.40009 11.3006C8.40753 11.289 8.41415 11.2797 8.41415 11.2797C8.41629 11.281 8.41642 11.2834 8.41526 11.2862C8.41898 11.2827 8.42308 11.2789 8.42717 11.2751C8.41648 11.2795 8.41216 11.279 8.43722 11.2659C8.44657 11.2575 8.45475 11.252 8.45475 11.252C8.45592 11.2537 8.45555 11.2557 8.45414 11.2578C8.46223 11.2537 8.47509 11.2465 8.48538 11.2408C8.47927 11.2426 8.4733 11.2445 8.46739 11.2466C8.47781 11.2425 8.48824 11.2378 8.49866 11.2337C8.50052 11.2328 8.5016 11.2326 8.5016 11.2326L8.49866 11.2337C8.49575 11.2352 8.49094 11.2378 8.48538 11.2408C8.49115 11.2392 8.49706 11.2377 8.50316 11.2363C8.50587 11.2357 8.51583 11.2335 8.52622 11.2312C8.48404 11.2326 8.49425 11.2324 8.55391 11.2251C8.55391 11.2251 8.5397 11.2282 8.52622 11.2312L8.52892 11.2311H8.55625H8.62262H9.77663H11.3757H11.9027H12.0355H12.055H12.069C12.0717 11.2311 12.0743 11.2312 12.0765 11.2312C12.0656 11.2286 12.0573 11.2274 12.0573 11.2274C12.0573 11.2274 12.0623 11.2303 12.069 11.2311H12.055H12.0355H11.9027H11.3757H9.77663H8.62262H8.55625H8.52892L8.52622 11.2312C8.51583 11.2335 8.50587 11.2357 8.50316 11.2363C8.49706 11.2377 8.49115 11.2392 8.48538 11.2408C8.47509 11.2465 8.46223 11.2537 8.45414 11.2578C8.44988 11.264 8.43624 11.2714 8.42717 11.2751C8.42308 11.2789 8.41898 11.2827 8.41526 11.2862C8.41248 11.293 8.40227 11.3028 8.39458 11.309C8.38522 11.3238 8.37589 11.3391 8.37511 11.341C8.37398 11.3428 8.36911 11.3591 8.36449 11.3757C8.36489 11.3843 8.36446 11.3972 8.36183 11.405V11.4142V11.4232V11.4867V13.5483V16.6219V17.8291H8.54922H11.061H12.2413C12.2425 17.6729 12.2462 17.5166 12.2462 17.3612V15.6644V13.7044V12.0838Z" fill="white"/>
</g>
<defs>
<clipPath id="clip0_5295_10536">
<rect width="20" height="20" fill="white" transform="translate(0.300049)"/>
</clipPath>
</defs>
</svg>
