<svg width="21" height="17" viewBox="0 0 21 17" fill="none" xmlns="http://www.w3.org/2000/svg">
<path d="M5.95455 0C2.52227 0 0.541818 2.78278 0.5 5.13767V5.14466C0.5 7.77467 1.88405 10.0193 3.77409 11.9389C5.66414 13.8585 8.07273 15.4838 10.2443 16.9227C10.3988 17.0258 10.6012 17.0258 10.7557 16.9227C12.9272 15.4836 15.3357 13.8585 17.2259 11.9389C19.1161 10.0193 20.5 7.77467 20.5 5.14466V5.13767C20.4583 2.78301 18.4776 0 15.0455 0C13.1172 0 11.4314 0.907821 10.5 2.15291C9.5687 0.907821 7.88273 0 5.95455 0ZM5.95455 0.894714C7.83132 0.894714 9.51273 1.96417 10.0952 3.11052C10.1734 3.25993 10.3296 3.35428 10.5 3.35428C10.6705 3.35428 10.8267 3.25992 10.9049 3.11052C11.4873 1.96417 13.1687 0.894714 15.0455 0.894714C17.9735 0.894714 19.5546 3.27309 19.591 5.1446V5.15159C19.5883 7.46957 18.3694 9.4914 16.5726 11.3166C14.8432 13.0737 12.5962 14.6141 10.5001 16.0069C8.40402 14.6142 6.15714 13.0738 4.42759 11.3166C2.63073 9.49136 1.41168 7.46957 1.40918 5.15159V5.1446C1.44558 3.27304 3.02673 0.894714 5.95464 0.894714H5.95455Z" fill="#43464E"/>
</svg>
