<svg width="21" height="20" viewBox="0 0 21 20" fill="none" xmlns="http://www.w3.org/2000/svg">
<path d="M20.6357 15.9862L17.3503 12.7007C18.1638 11.7576 18.6578 10.5309 18.6578 9.19062C18.6578 6.2233 16.2435 3.80957 13.2769 3.80957C10.3103 3.80957 7.896 6.22398 7.896 9.19062C7.896 12.1573 10.3103 14.5717 13.2769 14.5717C14.6171 14.5717 15.8437 14.0777 16.7869 13.2642L20.0723 16.5496C20.1498 16.6271 20.2521 16.6666 20.3537 16.6666C20.456 16.6666 20.5576 16.6271 20.6351 16.5496C20.7922 16.3945 20.7921 16.142 20.6357 15.9862ZM13.2768 13.7749C10.7493 13.7749 8.69263 11.7187 8.69263 9.19062C8.69263 6.66309 10.7488 4.60633 13.2768 4.60633C15.8043 4.60633 17.861 6.66258 17.861 9.19062C17.861 11.7181 15.8041 13.7749 13.2768 13.7749Z" fill="#43464E"/>
<rect x="0.900146" y="4.76196" width="6.19048" height="0.95238" rx="0.47619" fill="#43464E"/>
<rect x="0.900146" y="10" width="5.23809" height="0.952381" rx="0.476191" fill="#43464E"/>
<rect x="0.900146" y="14.762" width="8.57143" height="0.95238" rx="0.47619" fill="#43464E"/>
</svg>
