<svg width="17" height="20" viewBox="0 0 17 20" fill="none" xmlns="http://www.w3.org/2000/svg">
<path d="M16.7668 19.0244C16.7668 19.5599 16.3302 20 15.7902 20H1.07665C0.540484 20 0.100098 19.5617 0.100098 19.0244C0.100098 14.4436 3.83015 10.7317 8.43333 10.7317C13.0365 10.7317 16.7666 14.4436 16.7666 19.0244H16.7668ZM8.43353 11.7073C4.3722 11.7073 1.08067 14.9828 1.08067 19.0244C1.08067 19.0225 15.7903 19.0244 15.7903 19.0244C15.7865 14.9828 12.4949 11.7073 8.43353 11.7073ZM8.43353 9.7561C5.72601 9.7561 3.53163 7.57239 3.53163 4.87805C3.53163 2.18371 5.72601 0 8.43353 0C11.141 0 13.3354 2.18371 13.3354 4.87805C13.3354 7.57239 11.141 9.7561 8.43353 9.7561ZM8.43353 8.78049C10.5992 8.78049 12.3551 7.03317 12.3551 4.87805C12.3551 2.72293 10.5992 0.97561 8.43353 0.97561C6.26787 0.97561 4.51201 2.72293 4.51201 4.87805C4.51201 7.03317 6.26787 8.78049 8.43353 8.78049Z" fill="#43464E"/>
</svg>
